<mxfile host="app.diagrams.net" modified="2020-10-20T09:35:31.887Z" agent="5.0 (Windows NT 10.0; Win64; x64) AppleWebKit/537.36 (KHTML, like Gecko) Chrome/85.0.4183.121 Safari/537.36" etag="8w_2SkQibTIo5kn5gSMD" version="13.8.0" type="github">
  <diagram id="d2nmhAAWhssHAEg-v5hW" name="Page-1">
    <mxGraphModel dx="1422" dy="1422" grid="1" gridSize="10" guides="1" tooltips="1" connect="1" arrows="1" fold="1" page="1" pageScale="1" pageWidth="650" pageHeight="660" math="0" shadow="0">
      <root>
        <mxCell id="0" />
        <mxCell id="1" parent="0" />
        <mxCell id="StD7FsYF_MnFXc-APEik-2" value="Mutil Encoder Layer" style="rounded=0;whiteSpace=wrap;html=1;fillColor=#f8cecc;strokeColor=#b85450;" parent="1" vertex="1">
          <mxGeometry x="165.75" y="365" width="432.5" height="102" as="geometry" />
        </mxCell>
        <mxCell id="StD7FsYF_MnFXc-APEik-35" value="" style="whiteSpace=wrap;html=1;aspect=fixed;labelBackgroundColor=none;fontFamily=Georgia;fontSize=20;fillColor=#e1d5e7;strokeColor=#9673a6;" parent="1" vertex="1">
          <mxGeometry x="200" y="520" width="40" height="40" as="geometry" />
        </mxCell>
        <mxCell id="StD7FsYF_MnFXc-APEik-36" value="&lt;sub&gt;&lt;span style=&quot;font-size: 20px&quot;&gt;x&lt;/span&gt;1&lt;/sub&gt;" style="text;html=1;strokeColor=none;fillColor=none;align=center;verticalAlign=middle;whiteSpace=wrap;rounded=0;labelBackgroundColor=none;fontFamily=Georgia;fontSize=20;" parent="1" vertex="1">
          <mxGeometry x="200" y="530" width="40" height="20" as="geometry" />
        </mxCell>
        <mxCell id="StD7FsYF_MnFXc-APEik-37" value="" style="whiteSpace=wrap;html=1;aspect=fixed;labelBackgroundColor=none;fontFamily=Georgia;fontSize=20;fillColor=#e1d5e7;strokeColor=#9673a6;" parent="1" vertex="1">
          <mxGeometry x="284.5" y="520" width="40" height="40" as="geometry" />
        </mxCell>
        <mxCell id="StD7FsYF_MnFXc-APEik-38" value="&lt;sub&gt;&lt;span style=&quot;font-size: 20px&quot;&gt;x&lt;/span&gt;&lt;span style=&quot;font-size: 16.6667px&quot;&gt;2&lt;/span&gt;&lt;/sub&gt;" style="text;html=1;strokeColor=none;fillColor=none;align=center;verticalAlign=middle;whiteSpace=wrap;rounded=0;labelBackgroundColor=none;fontFamily=Georgia;fontSize=20;" parent="1" vertex="1">
          <mxGeometry x="284.5" y="530" width="40" height="20" as="geometry" />
        </mxCell>
        <mxCell id="StD7FsYF_MnFXc-APEik-39" value="" style="whiteSpace=wrap;html=1;aspect=fixed;labelBackgroundColor=none;fontFamily=Georgia;fontSize=20;fillColor=#e1d5e7;strokeColor=#9673a6;" parent="1" vertex="1">
          <mxGeometry x="377.5" y="520" width="40" height="40" as="geometry" />
        </mxCell>
        <mxCell id="StD7FsYF_MnFXc-APEik-40" value="&lt;sub&gt;&lt;span style=&quot;font-size: 20px&quot;&gt;x&lt;/span&gt;&lt;span style=&quot;font-size: 16.6667px&quot;&gt;3&lt;/span&gt;&lt;/sub&gt;" style="text;html=1;strokeColor=none;fillColor=none;align=center;verticalAlign=middle;whiteSpace=wrap;rounded=0;labelBackgroundColor=none;fontFamily=Georgia;fontSize=20;" parent="1" vertex="1">
          <mxGeometry x="377.5" y="530" width="40" height="20" as="geometry" />
        </mxCell>
        <mxCell id="StD7FsYF_MnFXc-APEik-41" value="" style="whiteSpace=wrap;html=1;aspect=fixed;labelBackgroundColor=none;fontFamily=Georgia;fontSize=20;fillColor=#e1d5e7;strokeColor=#9673a6;" parent="1" vertex="1">
          <mxGeometry x="540" y="520" width="40" height="40" as="geometry" />
        </mxCell>
        <mxCell id="StD7FsYF_MnFXc-APEik-42" value="&lt;sub&gt;&lt;span style=&quot;font-size: 20px&quot;&gt;x&lt;/span&gt;&lt;span style=&quot;font-size: 16.6667px&quot;&gt;n&lt;/span&gt;&lt;/sub&gt;" style="text;html=1;strokeColor=none;fillColor=none;align=center;verticalAlign=middle;whiteSpace=wrap;rounded=0;labelBackgroundColor=none;fontFamily=Georgia;fontSize=20;" parent="1" vertex="1">
          <mxGeometry x="540" y="530" width="40" height="20" as="geometry" />
        </mxCell>
        <mxCell id="StD7FsYF_MnFXc-APEik-43" value="â€¦" style="text;strokeColor=none;fillColor=none;html=1;fontSize=24;fontStyle=1;verticalAlign=middle;align=center;labelBackgroundColor=none;" parent="1" vertex="1">
          <mxGeometry x="432" y="512" width="100" height="40" as="geometry" />
        </mxCell>
        <mxCell id="StD7FsYF_MnFXc-APEik-50" value="" style="rhombus;whiteSpace=wrap;html=1;labelBackgroundColor=none;fontFamily=Georgia;fontSize=15;fillColor=#fff2cc;strokeColor=#d6b656;" parent="1" vertex="1">
          <mxGeometry x="197.25" y="245" width="50" height="50" as="geometry" />
        </mxCell>
        <mxCell id="StD7FsYF_MnFXc-APEik-51" value="h&lt;span style=&quot;font-size: 12.5px&quot;&gt;&lt;sub&gt;1&lt;/sub&gt;&lt;/span&gt;" style="text;html=1;strokeColor=none;fillColor=none;align=center;verticalAlign=middle;whiteSpace=wrap;rounded=0;labelBackgroundColor=none;fontFamily=Georgia;fontSize=15;" parent="1" vertex="1">
          <mxGeometry x="202.25" y="260" width="40" height="20" as="geometry" />
        </mxCell>
        <mxCell id="StD7FsYF_MnFXc-APEik-63" value="" style="rhombus;whiteSpace=wrap;html=1;labelBackgroundColor=none;fontFamily=Georgia;fontSize=15;fillColor=#fff2cc;strokeColor=#d6b656;" parent="1" vertex="1">
          <mxGeometry x="281.75" y="245" width="50" height="50" as="geometry" />
        </mxCell>
        <mxCell id="StD7FsYF_MnFXc-APEik-64" value="h&lt;span style=&quot;font-size: 12.5px&quot;&gt;&lt;sub&gt;2&lt;/sub&gt;&lt;/span&gt;" style="text;html=1;strokeColor=none;fillColor=none;align=center;verticalAlign=middle;whiteSpace=wrap;rounded=0;labelBackgroundColor=none;fontFamily=Georgia;fontSize=15;" parent="1" vertex="1">
          <mxGeometry x="286.75" y="260" width="40" height="20" as="geometry" />
        </mxCell>
        <mxCell id="StD7FsYF_MnFXc-APEik-75" value="" style="rhombus;whiteSpace=wrap;html=1;labelBackgroundColor=none;fontFamily=Georgia;fontSize=15;fillColor=#fff2cc;strokeColor=#d6b656;" parent="1" vertex="1">
          <mxGeometry x="376.5" y="230" width="50" height="50" as="geometry" />
        </mxCell>
        <mxCell id="StD7FsYF_MnFXc-APEik-76" value="h&lt;span style=&quot;font-size: 12.5px&quot;&gt;&lt;sub&gt;3&lt;/sub&gt;&lt;/span&gt;" style="text;html=1;strokeColor=none;fillColor=none;align=center;verticalAlign=middle;whiteSpace=wrap;rounded=0;labelBackgroundColor=none;fontFamily=Georgia;fontSize=15;" parent="1" vertex="1">
          <mxGeometry x="379.75" y="260" width="40" height="20" as="geometry" />
        </mxCell>
        <mxCell id="StD7FsYF_MnFXc-APEik-86" value="" style="rhombus;whiteSpace=wrap;html=1;labelBackgroundColor=none;fontFamily=Georgia;fontSize=15;fillColor=#fff2cc;strokeColor=#d6b656;" parent="1" vertex="1">
          <mxGeometry x="539.5" y="230" width="50" height="50" as="geometry" />
        </mxCell>
        <mxCell id="StD7FsYF_MnFXc-APEik-87" value="h&lt;span style=&quot;font-size: 12.5px&quot;&gt;&lt;sub&gt;n&lt;/sub&gt;&lt;/span&gt;" style="text;html=1;strokeColor=none;fillColor=none;align=center;verticalAlign=middle;whiteSpace=wrap;rounded=0;labelBackgroundColor=none;fontFamily=Georgia;fontSize=15;" parent="1" vertex="1">
          <mxGeometry x="542.75" y="260" width="40" height="20" as="geometry" />
        </mxCell>
        <mxCell id="StD7FsYF_MnFXc-APEik-97" value="" style="ellipse;whiteSpace=wrap;html=1;aspect=fixed;labelBackgroundColor=none;fontFamily=Georgia;fontSize=15;fillColor=#ffe6cc;strokeColor=#d79b00;" parent="1" vertex="1">
          <mxGeometry x="233.25" y="-38.25" width="35.5" height="35.5" as="geometry" />
        </mxCell>
        <mxCell id="StD7FsYF_MnFXc-APEik-98" value="B" style="text;html=1;strokeColor=none;fillColor=none;align=center;verticalAlign=middle;whiteSpace=wrap;rounded=0;labelBackgroundColor=none;fontFamily=Georgia;fontSize=15;" parent="1" vertex="1">
          <mxGeometry x="231" y="-30" width="40" height="20" as="geometry" />
        </mxCell>
        <mxCell id="StD7FsYF_MnFXc-APEik-99" value="" style="ellipse;whiteSpace=wrap;html=1;aspect=fixed;labelBackgroundColor=none;fontFamily=Georgia;fontSize=15;fillColor=#ffe6cc;strokeColor=#d79b00;" parent="1" vertex="1">
          <mxGeometry x="314.75" y="-37.75" width="35.5" height="35.5" as="geometry" />
        </mxCell>
        <mxCell id="StD7FsYF_MnFXc-APEik-100" value="I" style="text;html=1;strokeColor=none;fillColor=none;align=center;verticalAlign=middle;whiteSpace=wrap;rounded=0;labelBackgroundColor=none;fontFamily=Georgia;fontSize=15;" parent="1" vertex="1">
          <mxGeometry x="312.5" y="-29.5" width="40" height="20" as="geometry" />
        </mxCell>
        <mxCell id="StD7FsYF_MnFXc-APEik-101" value="" style="ellipse;whiteSpace=wrap;html=1;aspect=fixed;labelBackgroundColor=none;fontFamily=Georgia;fontSize=15;fillColor=#ffe6cc;strokeColor=#d79b00;" parent="1" vertex="1">
          <mxGeometry x="412.75" y="-38" width="35.5" height="35.5" as="geometry" />
        </mxCell>
        <mxCell id="StD7FsYF_MnFXc-APEik-102" value="O" style="text;html=1;strokeColor=none;fillColor=none;align=center;verticalAlign=middle;whiteSpace=wrap;rounded=0;labelBackgroundColor=none;fontFamily=Georgia;fontSize=15;" parent="1" vertex="1">
          <mxGeometry x="410.5" y="-29.75" width="40" height="20" as="geometry" />
        </mxCell>
        <mxCell id="StD7FsYF_MnFXc-APEik-103" value="" style="ellipse;whiteSpace=wrap;html=1;aspect=fixed;labelBackgroundColor=none;fontFamily=Georgia;fontSize=15;fillColor=#ffe6cc;strokeColor=#d79b00;" parent="1" vertex="1">
          <mxGeometry x="575.75" y="-38" width="35.5" height="35.5" as="geometry" />
        </mxCell>
        <mxCell id="StD7FsYF_MnFXc-APEik-104" value="O" style="text;html=1;strokeColor=none;fillColor=none;align=center;verticalAlign=middle;whiteSpace=wrap;rounded=0;labelBackgroundColor=none;fontFamily=Georgia;fontSize=15;" parent="1" vertex="1">
          <mxGeometry x="573.5" y="-29.75" width="40" height="20" as="geometry" />
        </mxCell>
        <mxCell id="StD7FsYF_MnFXc-APEik-111" value="" style="endArrow=classic;html=1;fontFamily=Georgia;fontSize=15;" parent="1" edge="1">
          <mxGeometry width="50" height="50" relative="1" as="geometry">
            <mxPoint x="303" y="129" as="sourcePoint" />
            <mxPoint x="303" y="88" as="targetPoint" />
          </mxGeometry>
        </mxCell>
        <mxCell id="StD7FsYF_MnFXc-APEik-112" value="" style="endArrow=classic;html=1;fontFamily=Georgia;fontSize=15;" parent="1" edge="1">
          <mxGeometry width="50" height="50" relative="1" as="geometry">
            <mxPoint x="401" y="130" as="sourcePoint" />
            <mxPoint x="401" y="90" as="targetPoint" />
          </mxGeometry>
        </mxCell>
        <mxCell id="StD7FsYF_MnFXc-APEik-118" value="mBERT&amp;nbsp;" style="shape=ext;rounded=1;html=1;whiteSpace=wrap;dashed=1;dashPattern=1 4;labelBackgroundColor=none;fontFamily=Georgia;fontSize=15;fillColor=#f5f5f5;strokeColor=#666666;gradientColor=#b3b3b3;" parent="1" vertex="1">
          <mxGeometry x="9" y="376.25" width="120" height="49.5" as="geometry" />
        </mxCell>
        <mxCell id="StD7FsYF_MnFXc-APEik-124" value="Word Vector" style="shape=ext;rounded=1;html=1;whiteSpace=wrap;dashed=1;dashPattern=1 4;labelBackgroundColor=none;fontFamily=Georgia;fontSize=15;fillColor=#f5f5f5;strokeColor=#666666;gradientColor=#b3b3b3;" parent="1" vertex="1">
          <mxGeometry x="9" y="515.25" width="120" height="49.5" as="geometry" />
        </mxCell>
        <mxCell id="StD7FsYF_MnFXc-APEik-125" value="â€¦" style="text;strokeColor=none;fillColor=none;html=1;fontSize=24;fontStyle=1;verticalAlign=middle;align=center;labelBackgroundColor=none;" parent="1" vertex="1">
          <mxGeometry x="464.5" y="-47.5" width="100" height="40" as="geometry" />
        </mxCell>
        <mxCell id="3Tyvc8VEzAgCt4dRKK7D-1" value="â€¦" style="text;strokeColor=none;fillColor=none;html=1;fontSize=24;fontStyle=1;verticalAlign=middle;align=center;labelBackgroundColor=none;" parent="1" vertex="1">
          <mxGeometry x="436" y="230" width="100" height="40" as="geometry" />
        </mxCell>
        <mxCell id="jiGHBDZR93LLw7lFKa7v-2" value="" style="endArrow=none;html=1;" edge="1" parent="1">
          <mxGeometry width="50" height="50" relative="1" as="geometry">
            <mxPoint x="618.25" y="490" as="sourcePoint" />
            <mxPoint x="618.25" y="280" as="targetPoint" />
          </mxGeometry>
        </mxCell>
        <mxCell id="jiGHBDZR93LLw7lFKa7v-4" value="" style="endArrow=classic;html=1;" edge="1" parent="1">
          <mxGeometry width="50" height="50" relative="1" as="geometry">
            <mxPoint x="219.5" y="520" as="sourcePoint" />
            <mxPoint x="220" y="470" as="targetPoint" />
          </mxGeometry>
        </mxCell>
        <mxCell id="jiGHBDZR93LLw7lFKa7v-5" value="" style="endArrow=classic;html=1;entryX=0.126;entryY=0.98;entryDx=0;entryDy=0;entryPerimeter=0;" edge="1" parent="1">
          <mxGeometry width="50" height="50" relative="1" as="geometry">
            <mxPoint x="304" y="520" as="sourcePoint" />
            <mxPoint x="304.4949999999999" y="470.00000000000006" as="targetPoint" />
          </mxGeometry>
        </mxCell>
        <mxCell id="jiGHBDZR93LLw7lFKa7v-6" value="" style="endArrow=classic;html=1;entryX=0.126;entryY=0.98;entryDx=0;entryDy=0;entryPerimeter=0;" edge="1" parent="1">
          <mxGeometry width="50" height="50" relative="1" as="geometry">
            <mxPoint x="397" y="520" as="sourcePoint" />
            <mxPoint x="397.4949999999999" y="470" as="targetPoint" />
          </mxGeometry>
        </mxCell>
        <mxCell id="jiGHBDZR93LLw7lFKa7v-7" value="" style="endArrow=classic;html=1;entryX=0.126;entryY=0.98;entryDx=0;entryDy=0;entryPerimeter=0;" edge="1" parent="1">
          <mxGeometry width="50" height="50" relative="1" as="geometry">
            <mxPoint x="560" y="520" as="sourcePoint" />
            <mxPoint x="559.9949999999999" y="470" as="targetPoint" />
          </mxGeometry>
        </mxCell>
        <mxCell id="jiGHBDZR93LLw7lFKa7v-8" value="" style="endArrow=classic;html=1;entryX=0.126;entryY=0.98;entryDx=0;entryDy=0;entryPerimeter=0;" edge="1" parent="1">
          <mxGeometry width="50" height="50" relative="1" as="geometry">
            <mxPoint x="221.75" y="365" as="sourcePoint" />
            <mxPoint x="222.2449999999999" y="294.96000000000004" as="targetPoint" />
          </mxGeometry>
        </mxCell>
        <mxCell id="jiGHBDZR93LLw7lFKa7v-10" value="" style="endArrow=classic;html=1;entryX=0.126;entryY=0.98;entryDx=0;entryDy=0;entryPerimeter=0;" edge="1" parent="1">
          <mxGeometry width="50" height="50" relative="1" as="geometry">
            <mxPoint x="306.25" y="365" as="sourcePoint" />
            <mxPoint x="306.7449999999999" y="294.96000000000004" as="targetPoint" />
          </mxGeometry>
        </mxCell>
        <mxCell id="jiGHBDZR93LLw7lFKa7v-11" value="" style="endArrow=classic;html=1;entryX=0.126;entryY=0.98;entryDx=0;entryDy=0;entryPerimeter=0;" edge="1" parent="1">
          <mxGeometry width="50" height="50" relative="1" as="geometry">
            <mxPoint x="399.25" y="365.04" as="sourcePoint" />
            <mxPoint x="399.7449999999999" y="295.00000000000006" as="targetPoint" />
            <Array as="points">
              <mxPoint x="399.25" y="335.04" />
            </Array>
          </mxGeometry>
        </mxCell>
        <mxCell id="jiGHBDZR93LLw7lFKa7v-12" value="" style="endArrow=classic;html=1;entryX=0.126;entryY=0.98;entryDx=0;entryDy=0;entryPerimeter=0;" edge="1" parent="1">
          <mxGeometry width="50" height="50" relative="1" as="geometry">
            <mxPoint x="557.75" y="365.04" as="sourcePoint" />
            <mxPoint x="558.2449999999999" y="295.00000000000006" as="targetPoint" />
          </mxGeometry>
        </mxCell>
        <mxCell id="jiGHBDZR93LLw7lFKa7v-13" value="Dense Layer" style="rounded=0;whiteSpace=wrap;html=1;fillColor=#f8cecc;strokeColor=#b85450;" vertex="1" parent="1">
          <mxGeometry x="167.5" y="80" width="432.5" height="102" as="geometry" />
        </mxCell>
        <mxCell id="jiGHBDZR93LLw7lFKa7v-14" value="" style="endArrow=none;html=1;" edge="1" parent="1">
          <mxGeometry width="50" height="50" relative="1" as="geometry">
            <mxPoint x="148.25" y="495" as="sourcePoint" />
            <mxPoint x="148.25" y="285" as="targetPoint" />
          </mxGeometry>
        </mxCell>
        <mxCell id="jiGHBDZR93LLw7lFKa7v-15" value="MLP" style="shape=ext;rounded=1;html=1;whiteSpace=wrap;dashed=1;dashPattern=1 4;labelBackgroundColor=none;fontFamily=Georgia;fontSize=15;fillColor=#f5f5f5;strokeColor=#666666;gradientColor=#b3b3b3;" vertex="1" parent="1">
          <mxGeometry x="9" y="106.25" width="120" height="49.5" as="geometry" />
        </mxCell>
        <mxCell id="jiGHBDZR93LLw7lFKa7v-16" value="" style="endArrow=classic;html=1;entryX=0.126;entryY=0.98;entryDx=0;entryDy=0;entryPerimeter=0;" edge="1" parent="1">
          <mxGeometry width="50" height="50" relative="1" as="geometry">
            <mxPoint x="223.5" y="230" as="sourcePoint" />
            <mxPoint x="223.9949999999999" y="159.96000000000004" as="targetPoint" />
          </mxGeometry>
        </mxCell>
        <mxCell id="jiGHBDZR93LLw7lFKa7v-17" value="" style="endArrow=classic;html=1;entryX=0.126;entryY=0.98;entryDx=0;entryDy=0;entryPerimeter=0;" edge="1" parent="1">
          <mxGeometry width="50" height="50" relative="1" as="geometry">
            <mxPoint x="233.5" y="240" as="sourcePoint" />
            <mxPoint x="233.9949999999999" y="169.96000000000004" as="targetPoint" />
          </mxGeometry>
        </mxCell>
      </root>
    </mxGraphModel>
  </diagram>
</mxfile>
